<?xml version="1.0" encoding="utf-8"?>
<!-- Generator: Adobe Illustrator 16.0.0, SVG Export Plug-In . SVG Version: 6.00 Build 0)  -->
<!DOCTYPE svg PUBLIC "-//W3C//DTD SVG 1.1//EN" "http://www.w3.org/Graphics/SVG/1.1/DTD/svg11.dtd">
<svg version="1.1" id="Layer_1" xmlns="http://www.w3.org/2000/svg" xmlns:xlink="http://www.w3.org/1999/xlink" x="0px" y="0px"
	 width="377px" height="60px" viewBox="0 0 377 60" enable-background="new 0 0 377 60" xml:space="preserve">
<g>
	<path fill="#FFFFFF" d="M5.22,11.89h5.16l14.28,24.719l4.26,8.16h0.24c-0.24-3.96-0.66-8.399-0.66-12.54V11.89h4.74v39.358h-5.16
		L13.859,26.469l-4.26-8.1H9.36c0.24,3.96,0.6,8.16,0.6,12.3v20.579H5.22V11.89z"/>
	<path fill="#FFFFFF" d="M54.779,21.369c7.14,0,13.5,5.58,13.5,15.359c0,9.66-6.36,15.239-13.5,15.239s-13.5-5.579-13.5-15.239
		C41.28,26.949,47.64,21.369,54.779,21.369z M54.779,47.889c5.04,0,8.4-4.5,8.4-11.16c0-6.72-3.36-11.279-8.4-11.279
		c-4.98,0-8.399,4.56-8.399,11.279C46.38,43.389,49.799,47.889,54.779,47.889z"/>
	<path fill="#FFFFFF" d="M75.959,22.089h4.08l0.42,5.28h0.18c1.98-3.66,4.98-6,8.28-6c1.26,0,2.16,0.18,3.12,0.6l-0.96,4.32
		c-0.96-0.3-1.62-0.48-2.82-0.48c-2.46,0-5.4,1.801-7.379,6.721v18.719h-4.92V22.089z"/>
	<path fill="#FFFFFF" d="M99.058,26.109h-4.32v-3.72l4.56-0.301l0.6-8.159h4.14v8.159h7.859v4.021h-7.859v16.199
		c0,3.6,1.14,5.64,4.5,5.64c1.02,0,2.34-0.42,3.3-0.78l0.96,3.72c-1.62,0.54-3.6,1.08-5.399,1.08c-6.24,0-8.34-3.96-8.34-9.72
		V26.109z"/>
	<path fill="#FFFFFF" d="M118.499,8.529h4.92v11.64l-0.18,6c2.76-2.64,5.7-4.8,9.72-4.8c6.12,0,8.879,3.96,8.879,11.399v18.479
		h-4.92V33.429c0-5.46-1.68-7.8-5.52-7.8c-3,0-5.04,1.561-7.979,4.5v21.119h-4.92V8.529z"/>
	<path fill="#FFFFFF" d="M162.057,21.369c7.439,0,11.64,5.34,11.64,13.68c0,1.02-0.06,1.979-0.18,2.7h-19.679
		c0.36,6.3,4.14,10.259,9.72,10.259c2.76,0,5.1-0.899,7.26-2.279l1.74,3.239c-2.52,1.62-5.64,3-9.6,3
		c-7.8,0-13.979-5.699-13.979-15.239C148.978,27.189,155.397,21.369,162.057,21.369z M169.377,34.509c0-5.939-2.64-9.239-7.2-9.239
		c-4.08,0-7.8,3.359-8.4,9.239H169.377z"/>
	<path fill="#FFFFFF" d="M180.897,22.089h4.08l0.42,5.28h0.18c1.98-3.66,4.98-6,8.28-6c1.26,0,2.16,0.18,3.12,0.6l-0.96,4.32
		c-0.96-0.3-1.62-0.48-2.82-0.48c-2.46,0-5.4,1.801-7.379,6.721v18.719h-4.92V22.089z"/>
	<path fill="#FFFFFF" d="M201.716,22.089h4.08l0.42,4.2h0.18c2.76-2.76,5.76-4.92,9.78-4.92c6.12,0,8.879,3.96,8.879,11.399v18.479
		h-4.92V33.429c0-5.46-1.68-7.8-5.52-7.8c-3,0-5.04,1.561-7.979,4.5v21.119h-4.92V22.089z"/>
</g>
<text transform="matrix(1 0 0 1 496 332.248)" fill="#111111" font-family="'Roboto-Bold'" font-size="60"> </text>
<g>
	<path fill="#FFFFFF" d="M244.48,44.648c2.88,3.359,7.08,5.52,11.879,5.52c6.36,0,10.44-3.479,10.44-8.52
		c0-5.279-3.36-6.96-7.32-8.76l-6.119-2.76c-3.36-1.5-8.04-3.84-8.04-9.72c0-5.64,4.8-9.479,11.159-9.479
		c4.8,0,8.521,2.22,10.8,4.68l-1.2,1.32c-2.279-2.521-5.52-4.2-9.6-4.2c-5.52,0-9.239,3-9.239,7.56c0,4.92,4.14,6.78,6.96,8.04
		l6.119,2.76c4.38,1.979,8.4,4.319,8.4,10.439c0,6-4.92,10.439-12.36,10.439c-5.879,0-10.199-2.52-13.199-5.999L244.48,44.648z"/>
	<path fill="#FFFFFF" d="M278.799,7.93h1.8v32.879h0.12l14.88-18.239h2.159l-9.239,11.279l10.92,17.399h-2.04l-9.96-15.959
		l-6.84,8.039v7.92h-1.8V7.93z"/>
	<path fill="#FFFFFF" d="M306.879,13.21c0-1.32,0.96-2.04,2.04-2.04s2.04,0.72,2.04,2.04c0,1.199-0.96,2.04-2.04,2.04
		S306.879,14.409,306.879,13.21z M307.959,22.569h1.8v28.679h-1.8V22.569z"/>
	<path fill="#FFFFFF" d="M323.319,7.93h1.8v40.559c0,1.2,0.48,1.8,1.2,1.8c0.24,0,0.479,0,1.08-0.12l0.359,1.561
		c-0.479,0.119-0.84,0.239-1.56,0.239c-1.8,0-2.88-1.08-2.88-3.84V7.93z"/>
	<path fill="#FFFFFF" d="M339.158,7.93h1.8v40.559c0,1.2,0.48,1.8,1.2,1.8c0.24,0,0.479,0,1.08-0.12l0.359,1.561
		c-0.479,0.119-0.84,0.239-1.56,0.239c-1.8,0-2.88-1.08-2.88-3.84V7.93z"/>
	<path fill="#FFFFFF" d="M352.478,46.568c2.399,2.04,5.039,3.72,9.359,3.72c4.8,0,7.319-2.88,7.319-6.12
		c0-3.84-3.84-5.52-7.199-6.72c-4.44-1.56-9.36-3.239-9.36-8.159c0-3.96,3.12-7.439,9-7.439c2.88,0,5.88,1.199,7.92,2.88
		l-1.08,1.439c-1.92-1.439-3.96-2.64-6.96-2.64c-4.8,0-6.96,2.819-6.96,5.64c0,3.36,3.48,4.8,6.96,6.12
		c4.56,1.739,9.6,3.119,9.6,8.76c0,4.199-3.359,7.919-9.359,7.919c-4.319,0-7.92-1.8-10.439-3.96L352.478,46.568z"/>
</g>
</svg>
